<?xml version="1.0" encoding="UTF-8"?>
<svg enable-background="new 0 0 1000 1000" style="" version="1.1" viewBox="0 0 1000 1000" xml:space="preserve" xmlns="http://www.w3.org/2000/svg"><rect width="100%" height="100%" fill="none"/>
<metadata> Svg Vector Icons : http://www.onlinewebfonts.com/icon </metadata>
<g class="currentLayer" style=""><title>Layer 1</title><path class="" d="m81.546 127.98c-25.677 3.4717-49.98 16.945-61.43 33.884-12.047 17.778-10.076 40.967 4.7392 57.353 8.1044 9.0291 21.535 17.218 36.739 22.356l14.815 4.9975h847.44l13.431-4.4446c44.246-14.72 62.625-49.996 42.075-80.541-11.848-17.358-35.554-30.272-62.227-33.744-13.232-1.6658-822.93-1.6658-835.58 0.13999z" fill="#fff"/><path class="" d="m78.535 414.68c-25.451 4.5193-47.541 17.79-58.785 35.427-5.9153 9.3325-6.3129 10.934-6.3129 25.955 0 15.748 0.19883 16.475 7.2972 27.116 9.0767 13.558 24.059 24.492 42.411 30.907l13.411 4.6662 418.16 0.43356c378.32 0.29394 418.95 0.14697 429.01-2.0429 15.976-3.3509 28.403-8.8916 39.25-17.35 46.746-36.595 20.321-96.227-46.944-105.7-16.563-2.3294-824.49-1.7489-837.5 0.58787z" fill="#fff"/><path class="" d="m79.989 703.81c-25.451 4.0786-48.327 17.466-59.372 35.079-7.2972 11.348-9.8622 29.401-5.9153 40.896 6.313 18.633 24.655 34.639 48.923 43.229l13.411 4.6581h846.2l13.411-4.6581c54.64-19.212 67.653-70.151 25.64-101.88-11.443-8.7294-29-15.574-45.762-17.899-16.175-2.1934-822.33-1.7532-836.53 0.57218z" fill="#fff"/></g></svg>
